<svg width="47" height="47" viewBox="0 0 47 47" fill="none" xmlns="http://www.w3.org/2000/svg">
<g id="Facebook logo 2019" clip-path="url(#clip0_26584_2611)">
<path id="Vector" d="M46.2368 23.7466C46.2368 11.044 35.9394 0.746582 23.2368 0.746582C10.5343 0.746582 0.236816 11.044 0.236816 23.7466C0.236816 35.2265 8.64758 44.7417 19.6431 46.4671V30.395H13.8032V23.7466H19.6431V18.6794C19.6431 12.915 23.0768 9.73096 28.3305 9.73096C30.8469 9.73096 33.479 10.1802 33.479 10.1802V15.8403H30.5787C27.7216 15.8403 26.8306 17.6132 26.8306 19.4322V23.7466H33.2095L32.1897 30.395H26.8306V46.4671C37.826 44.7417 46.2368 35.2265 46.2368 23.7466Z" fill="#1877F2"/>
<path id="Vector_2" d="M32.1897 30.395L33.2095 23.7466H26.8306V19.4322C26.8306 17.6132 27.7216 15.8403 30.5787 15.8403H33.479V10.1802C33.479 10.1802 30.8469 9.73096 28.3305 9.73096C23.0768 9.73096 19.6431 12.915 19.6431 18.6794V23.7466H13.8032V30.395H19.6431V46.4671C22.0244 46.8398 24.4492 46.8398 26.8306 46.4671V30.395H32.1897Z" fill="white"/>
</g>
<defs>
<clipPath id="clip0_26584_2611">
<rect width="46" height="46" fill="white" transform="translate(0.236816 0.746582)"/>
</clipPath>
</defs>
</svg>
