<svg width="18" height="18" viewBox="0 0 18 18" fill="none" xmlns="http://www.w3.org/2000/svg">
<g id="Group">
<path id="Vector" d="M7.00652 14.0865L5.55827 13.698L6.14852 11.4938C5.265 11.1679 4.44386 10.693 3.72077 10.0898L2.10602 11.7053L1.04477 10.644L2.66027 9.02927C1.74833 7.93709 1.13558 6.62684 0.882019 5.22677L2.35802 4.95752C2.92727 8.10902 5.68427 10.5 9.00002 10.5C12.315 10.5 15.0728 8.10902 15.642 4.95752L17.118 5.22602C16.8648 6.62628 16.2523 7.9368 15.3405 9.02927L16.9553 10.644L15.894 11.7053L14.2793 10.0898C13.5562 10.693 12.735 11.1679 11.8515 11.4938L12.4418 13.6988L10.9935 14.0865L10.4025 11.8815C9.47428 12.0406 8.52576 12.0406 7.59752 11.8815L7.00652 14.0865Z" fill="#9197A6"/>
</g>
</svg>
