<svg width="50" height="51" viewBox="0 0 50 51" fill="none" xmlns="http://www.w3.org/2000/svg">
<g id="linkedin">
<path id="Vector" d="M27.6749 22.5268H27.7099V22.4708L27.6749 22.5268ZM27.6749 22.5268H27.7099V22.4708L27.6749 22.5268ZM27.6749 22.5268H27.7099V22.4708L27.6749 22.5268ZM27.6749 22.5268H27.7099V22.4708L27.6749 22.5268ZM27.6749 22.5268H27.7099V22.4708L27.6749 22.5268ZM27.6749 22.5268H27.7099V22.4708L27.6749 22.5268ZM27.6749 22.5268H27.7099V22.4708L27.6749 22.5268ZM27.6749 22.5268H27.7099V22.4708L27.6749 22.5268ZM27.6749 22.5268H27.7099V22.4708L27.6749 22.5268ZM27.6749 22.5268H27.7099V22.4708L27.6749 22.5268ZM27.6749 22.5268H27.7099V22.4708L27.6749 22.5268ZM27.6749 22.5268H27.7099V22.4708L27.6749 22.5268ZM27.6749 22.5268H27.7099V22.4708L27.6749 22.5268ZM27.6749 22.5268H27.7099V22.4708L27.6749 22.5268ZM27.6749 22.5268H27.7099V22.4708L27.6749 22.5268ZM27.6749 22.5268H27.7099V22.4708L27.6749 22.5268ZM25.4 1.92285C20.8836 1.92285 16.4687 3.28889 12.7135 5.84821C8.95831 8.40754 6.03149 12.0452 4.30316 16.3012C2.57484 20.5572 2.12263 25.2404 3.00372 29.7585C3.88481 34.2767 6.05964 38.4269 9.25317 41.6843C12.4467 44.9417 16.5155 47.16 20.9451 48.0587C25.3746 48.9574 29.966 48.4962 34.1385 46.7333C38.3111 44.9704 41.8774 41.985 44.3866 38.1547C46.8957 34.3244 48.2349 29.8212 48.2349 25.2146C48.2283 19.0393 45.8204 13.1189 41.5394 8.75229C37.2585 4.38571 31.4541 1.9296 25.4 1.92285ZM19.69 35.7002C19.6886 35.8034 19.6475 35.902 19.5754 35.9745C19.5034 36.0471 19.4062 36.0878 19.305 36.0878H14.905C14.8042 36.0878 14.7075 36.0469 14.6362 35.9742C14.565 35.9015 14.525 35.803 14.525 35.7002V20.6195C14.5243 20.5681 14.5336 20.5172 14.5524 20.4696C14.5712 20.4219 14.5991 20.3786 14.6345 20.3421C14.6698 20.3055 14.7119 20.2765 14.7584 20.2567C14.8048 20.2369 14.8546 20.2267 14.905 20.2268H19.305C19.3555 20.2268 19.4056 20.2369 19.4523 20.2566C19.499 20.2764 19.5414 20.3053 19.5772 20.3418C19.6129 20.3782 19.6413 20.4215 19.6606 20.4692C19.68 20.5168 19.69 20.5679 19.69 20.6195V35.7002ZM16.95 18.2122C16.4031 18.2122 15.8685 18.0468 15.4138 17.7369C14.9591 17.427 14.6047 16.9866 14.3954 16.4712C14.1861 15.9559 14.1314 15.3888 14.2381 14.8417C14.3448 14.2947 14.6081 13.7921 14.9948 13.3977C15.3815 13.0033 15.8742 12.7347 16.4105 12.6258C16.9469 12.517 17.5028 12.5729 18.0081 12.7863C18.5133 12.9998 18.9451 13.3613 19.249 13.8251C19.5528 14.2889 19.715 14.8341 19.715 15.392C19.7156 15.7625 19.6445 16.1295 19.5058 16.472C19.3671 16.8145 19.1635 17.1257 18.9066 17.3877C18.6497 17.6497 18.3446 17.8574 18.0088 17.9989C17.6731 18.1404 17.3132 18.2129 16.95 18.2122ZM38.3099 35.7002C38.3086 35.8034 38.2675 35.902 38.1954 35.9745C38.1234 36.0471 38.0262 36.0878 37.9249 36.0878H33.525C33.475 36.0878 33.4256 36.0777 33.3795 36.0582C33.3334 36.0388 33.2915 36.0102 33.2562 35.9742C33.221 35.9382 33.193 35.8955 33.1739 35.8485C33.1548 35.8015 33.145 35.7511 33.145 35.7002V27.5963C33.145 25.4645 32.4 24.0263 30.53 24.0263C29.9472 24.0296 29.3798 24.2166 28.9054 24.5617C28.431 24.9069 28.0728 25.3932 27.8799 25.9541C27.7481 26.3686 27.6905 26.8039 27.7099 27.2393V35.7002C27.7099 35.8043 27.6694 35.9042 27.5972 35.9778C27.525 36.0515 27.4271 36.0928 27.325 36.0928H22.9249C22.8746 36.0929 22.8248 36.0827 22.7784 36.0629C22.7319 36.0431 22.6898 36.0141 22.6545 35.9775C22.6191 35.941 22.5912 35.8977 22.5724 35.85C22.5536 35.8024 22.5443 35.7515 22.545 35.7002C22.545 33.548 22.6 23.0981 22.545 20.6399C22.5443 20.5885 22.5536 20.5376 22.5724 20.49C22.5912 20.4423 22.6191 20.399 22.6545 20.3625C22.6898 20.3259 22.7319 20.2969 22.7784 20.2771C22.8248 20.2573 22.8746 20.2471 22.9249 20.2472H27.315C27.3657 20.2465 27.4161 20.2562 27.4631 20.2756C27.5101 20.2951 27.5528 20.324 27.5887 20.3606C27.6246 20.3972 27.6529 20.4408 27.672 20.4888C27.6911 20.5367 27.7006 20.5881 27.7 20.6399V22.4911C28.1676 21.663 28.8488 20.9814 29.6694 20.5202C30.49 20.0589 31.4188 19.8358 32.3549 19.8749C35.75 19.8749 38.2999 22.1393 38.2999 27.0149L38.3099 35.7002ZM27.7099 22.5422V22.4861L27.6749 22.5422H27.7099ZM27.6749 22.5422H27.7099V22.4861L27.6749 22.5422ZM27.6749 22.5422H27.7099V22.4861L27.6749 22.5422ZM27.6749 22.5422H27.7099V22.4861L27.6749 22.5422ZM27.6749 22.5422H27.7099V22.4861L27.6749 22.5422ZM27.6749 22.5422H27.7099V22.4861L27.6749 22.5422ZM27.6749 22.5422H27.7099V22.4861L27.6749 22.5422ZM27.6749 22.5422H27.7099V22.4861L27.6749 22.5422ZM27.6749 22.5422H27.7099V22.4861L27.6749 22.5422ZM27.6749 22.5422H27.7099V22.4861L27.6749 22.5422ZM27.6749 22.5422H27.7099V22.4861L27.6749 22.5422ZM27.6749 22.5422H27.7099V22.4861L27.6749 22.5422ZM27.6749 22.5422H27.7099V22.4861L27.6749 22.5422ZM27.6749 22.5422H27.7099V22.4861L27.6749 22.5422ZM27.6749 22.5422H27.7099V22.4861L27.6749 22.5422Z" fill="#0B49D1"/>
</g>
</svg>
