<svg width="49" height="48" viewBox="0 0 49 48" fill="none" xmlns="http://www.w3.org/2000/svg">
<g id="twitter">
<rect x="0.541504" width="48" height="48" rx="24" fill="#1877F2"/>
<path id="Vector" d="M36.6753 16.4894C35.7632 16.8851 34.7987 17.1466 33.8117 17.2659C34.853 16.6439 35.6333 15.6652 36.0079 14.5116C35.0294 15.0941 33.9582 15.5045 32.841 15.7249C32.0942 14.9151 31.0998 14.376 30.0136 14.1923C28.9274 14.0085 27.811 14.1905 26.8394 14.7096C25.8678 15.2287 25.0959 16.0556 24.6449 17.0607C24.1939 18.0657 24.0893 19.192 24.3474 20.263C22.3689 20.1629 20.4335 19.6477 18.6671 18.7509C16.9007 17.8541 15.3427 16.5958 14.0943 15.0576C13.6564 15.8222 13.4264 16.6882 13.427 17.5693C13.4254 18.3876 13.6262 19.1935 14.0115 19.9154C14.3968 20.6373 14.9546 21.2528 15.6353 21.7069C14.8442 21.6854 14.0699 21.4731 13.3784 21.0881V21.1488C13.3843 22.2953 13.7861 23.4045 14.5157 24.2889C15.2454 25.1733 16.2581 25.7786 17.3826 26.0023C16.9497 26.134 16.5003 26.2035 16.0479 26.2085C15.7347 26.2049 15.4223 26.1765 15.1135 26.1236C15.4338 27.1099 16.0535 27.9718 16.8864 28.5894C17.7193 29.207 18.7241 29.5496 19.7608 29.5696C18.0101 30.9471 15.8487 31.6989 13.6211 31.7051C13.2155 31.7065 12.8102 31.6822 12.4077 31.6323C14.6821 33.1008 17.3326 33.8804 20.0399 33.8771C21.9081 33.8965 23.7615 33.5434 25.4917 32.8385C27.222 32.1336 28.7944 31.091 30.1172 29.7716C31.44 28.4522 32.4867 26.8824 33.196 25.154C33.9053 23.4256 34.2631 21.5731 34.2485 19.7048C34.2485 19.4986 34.2485 19.2801 34.2485 19.0617C35.2007 18.3517 36.0219 17.4812 36.6753 16.4894Z" fill="#FCFDFF"/>
</g>
</svg>
